<svg width="1440" height="1024" viewBox="0 0 1440 1024" fill="none" xmlns="http://www.w3.org/2000/svg">
<g clip-path="url(#clip0)">
<rect width="1440" height="1024" fill="white"/>
<g clip-path="url(#clip1)">
<path d="M516.093 831.257C504.954 821.845 498.189 806.977 499.963 792.503C501.737 778.029 512.727 764.723 526.981 761.649C541.236 758.576 557.485 767.084 561.815 781.009C564.198 754.162 566.944 726.191 581.217 703.329C594.141 682.628 616.526 667.815 640.786 665.165C665.046 662.515 690.588 672.524 705.718 691.672C720.848 710.82 724.553 738.658 713.956 760.641C706.15 776.836 691.768 788.888 676.7 798.693C628.008 830.11 569.608 842.886 512.246 834.67L516.093 831.257Z" fill="#F2F2F2"/>
<path d="M681.728 673.079C661.71 689.383 643.346 707.619 626.901 727.521C601.165 758.562 580.34 793.364 565.149 830.715C564.037 833.44 568.462 834.626 569.562 831.931C594.416 771.228 634.092 717.724 684.963 676.314C687.248 674.454 683.993 671.234 681.728 673.079Z" fill="white"/>
<path d="M130.067 828.699C145.366 815.772 154.658 795.351 152.221 775.471C149.784 755.591 134.69 737.315 115.112 733.094C95.5326 728.872 73.2141 740.558 67.2673 759.684C63.9945 722.81 60.2232 684.392 40.6189 652.991C22.8677 624.558 -7.8777 604.213 -41.1988 600.573C-74.5199 596.933 -109.603 610.68 -130.384 636.98C-151.165 663.28 -156.253 701.515 -141.699 731.709C-130.977 753.952 -111.223 770.506 -90.5267 783.973C-24.4972 826.939 57.4124 844.858 135.351 833.388" fill="#F2F2F2"/>
<path d="M-97.4329 611.442C-69.9388 633.836 -44.716 658.882 -22.1291 686.218C0.461426 713.526 20.3499 742.961 37.257 774.109C46.7073 791.582 55.1968 809.557 62.6875 827.955C64.2147 831.698 58.1374 833.327 56.6271 829.626C43.3593 797.19 26.9445 766.133 7.61811 736.899C-11.6144 707.771 -33.627 680.578 -58.1106 655.701C-71.9586 641.637 -86.5694 628.345 -101.877 615.886C-105.014 613.331 -100.545 608.908 -97.4329 611.442L-97.4329 611.442Z" fill="white"/>
<path d="M474.5 836H109.5V461.5C109.5 381.822 174.322 317 254 317H330C409.678 317 474.5 381.822 474.5 461.5V836Z" fill="#F2F2F2"/>
<path d="M398.5 836H109.5V461.5C109.42 430.969 119.088 401.21 137.095 376.556C137.759 375.651 138.421 374.758 139.104 373.875C147.814 362.451 158.18 352.39 169.858 344.024C170.518 343.544 171.18 343.072 171.852 342.601C181.625 335.838 192.195 330.31 203.324 326.142C203.985 325.891 204.658 325.64 205.331 325.399C215.396 321.807 225.83 319.347 236.439 318.063C237.097 317.974 237.772 317.903 238.448 317.833C248.787 316.728 259.214 316.728 269.553 317.833C270.227 317.903 270.902 317.974 271.567 318.064C282.174 319.348 292.605 321.808 302.668 325.399C303.341 325.64 304.014 325.891 304.677 326.142C315.668 330.258 326.115 335.703 335.783 342.358C336.455 342.819 337.127 343.291 337.789 343.763C344.335 348.435 350.484 353.641 356.173 359.327C360.735 363.887 364.986 368.748 368.897 373.878C369.578 374.758 370.24 375.651 370.903 376.554C388.911 401.209 398.579 430.969 398.5 461.5V836Z" fill="#CCCCCC"/>
<path d="M375 668.5C383.837 668.5 391 661.337 391 652.5C391 643.663 383.837 636.5 375 636.5C366.163 636.5 359 643.663 359 652.5C359 661.337 366.163 668.5 375 668.5Z" fill="#6C63FF"/>
<path d="M444.599 824.783H432.339L426.506 777.495L444.601 777.496L444.599 824.783Z" fill="#FFB8B8"/>
<path d="M423.581 821.28H447.225V836.167H408.694C408.694 834.212 409.079 832.276 409.828 830.47C410.576 828.664 411.672 827.022 413.055 825.64C414.437 824.258 416.078 823.161 417.884 822.413C419.69 821.665 421.626 821.28 423.581 821.28V821.28Z" fill="#2F2E41"/>
<path d="M505.599 824.783H493.339L487.506 777.495L505.601 777.496L505.599 824.783Z" fill="#FFB8B8"/>
<path d="M484.581 821.28H508.225V836.167H469.694C469.694 834.212 470.079 832.276 470.828 830.47C471.576 828.664 472.672 827.022 474.055 825.64C475.437 824.258 477.078 823.161 478.884 822.413C480.69 821.665 482.626 821.28 484.581 821.28V821.28Z" fill="#2F2E41"/>
<path d="M383.097 655.67C382.215 654.37 381.629 652.893 381.379 651.343C381.13 649.792 381.224 648.206 381.654 646.695C382.084 645.185 382.84 643.787 383.868 642.6C384.897 641.413 386.174 640.467 387.608 639.827L429.283 524.96L449.791 536.151L402.206 645.922C403.121 648.403 403.095 651.133 402.132 653.595C401.169 656.058 399.337 658.082 396.981 659.283C394.626 660.485 391.911 660.781 389.353 660.115C386.794 659.449 384.568 657.867 383.097 655.67V655.67Z" fill="#FFB8B8"/>
<path d="M499.336 677.254C497.974 676.472 496.799 675.402 495.895 674.118C494.991 672.834 494.379 671.367 494.104 669.821C493.828 668.275 493.894 666.687 494.298 665.169C494.703 663.652 495.435 662.241 496.443 661.037L483.532 539.528L506.87 540.594L512.236 660.114C514.146 661.942 515.32 664.408 515.534 667.043C515.748 669.678 514.989 672.301 513.399 674.414C511.809 676.526 509.499 677.982 506.907 678.506C504.315 679.029 501.621 678.584 499.336 677.254V677.254Z" fill="#FFB8B8"/>
<path d="M462.106 503.684C475.671 503.684 486.667 492.687 486.667 479.123C486.667 465.558 475.671 454.562 462.106 454.562C448.541 454.562 437.545 465.558 437.545 479.123C437.545 492.687 448.541 503.684 462.106 503.684Z" fill="#FFB8B8"/>
<path d="M499.18 649.619H425.133L425.222 649.043C425.355 648.181 438.419 562.604 428.784 534.607C427.817 531.855 427.902 528.844 429.022 526.151C430.143 523.459 432.22 521.276 434.853 520.023H434.853C448.625 513.538 475.061 505.552 497.373 524.932C500.657 527.831 503.221 531.454 504.862 535.515C506.504 539.575 507.179 543.962 506.833 548.328L499.18 649.619Z" fill="#6C63FF"/>
<path d="M439.354 575.25L406.018 568.487L421.644 531.457C422.579 527.871 424.898 524.802 428.093 522.923C431.288 521.044 435.098 520.51 438.687 521.436C442.276 522.363 445.351 524.675 447.237 527.865C449.123 531.056 449.667 534.864 448.75 538.455L439.354 575.25Z" fill="#6C63FF"/>
<path d="M482.05 587.808L480.046 541.867C478.526 533.23 483.47 525.066 491.073 523.732C498.679 522.402 506.105 528.392 507.632 537.092L515.165 580.019L482.05 587.808Z" fill="#6C63FF"/>
<path d="M496.716 644.119C508.63 689.495 509.93 747.188 506.716 810.119L490.716 808.119L461.716 688.119L445.716 810.119L427.716 809.119C422.338 743.089 417.103 686.403 425.716 649.119L496.716 644.119Z" fill="#2F2E41"/>
<path d="M478.289 498.104C473.707 502.985 465.198 500.365 464.601 493.697C464.554 493.179 464.558 492.658 464.611 492.141C464.92 489.188 466.626 486.506 466.217 483.388C466.125 482.611 465.835 481.872 465.377 481.239C461.726 476.349 453.155 483.425 449.709 478.999C447.596 476.285 450.08 472.012 448.458 468.979C446.318 464.975 439.979 466.95 436.004 464.758C431.582 462.318 431.846 455.532 434.757 451.405C438.308 446.371 444.533 443.685 450.681 443.298C456.828 442.911 462.934 444.573 468.673 446.81C475.194 449.351 481.661 452.863 485.674 458.597C490.554 465.57 491.024 474.945 488.583 483.099C487.098 488.059 482.031 494.118 478.289 498.104Z" fill="#2F2E41"/>
<path d="M689.981 836.644H-48.3128C-48.628 836.643 -48.9299 836.517 -49.1525 836.294C-49.375 836.07 -49.5 835.768 -49.5 835.453C-49.5 835.138 -49.375 834.835 -49.1525 834.612C-48.9299 834.389 -48.628 834.263 -48.3128 834.262H689.981C690.296 834.263 690.598 834.389 690.821 834.612C691.043 834.835 691.168 835.138 691.168 835.453C691.168 835.768 691.043 836.07 690.821 836.294C690.598 836.517 690.296 836.643 689.981 836.644V836.644Z" fill="#3F3D56"/>
<path d="M319 727.5H189C187.288 727.509 185.642 726.839 184.424 725.636C183.205 724.433 182.513 722.797 182.5 721.085V430.915C182.513 429.203 183.205 427.566 184.424 426.364C185.642 425.161 187.288 424.491 189 424.5H319C320.712 424.491 322.358 425.161 323.576 426.364C324.795 427.566 325.487 429.203 325.5 430.915V721.085C325.487 722.797 324.795 724.433 323.576 725.636C322.358 726.839 320.712 727.509 319 727.5V727.5Z" fill="white"/>
<path d="M325.5 518.39H182.5V520.39H325.5V518.39Z" fill="#CCCCCC"/>
<path d="M326 632.5H183V634.5H326V632.5Z" fill="#CCCCCC"/>
<path d="M229.5 424.5H227.5V728.5H229.5V424.5Z" fill="#CCCCCC"/>
<path d="M279.5 424.5H277.5V728.5H279.5V424.5Z" fill="#CCCCCC"/>
</g>
</g>
<defs>
<clipPath id="clip0">
<rect width="1440" height="1024" fill="white"/>
</clipPath>
<clipPath id="clip1">
<rect width="870" height="520.139" fill="white" transform="translate(-150 317)"/>
</clipPath>
</defs>
</svg>
