<svg width="223" height="223" viewBox="0 0 223 223" fill="none" xmlns="http://www.w3.org/2000/svg">
<g filter="url(#filter0_d)">
<path d="M111.5 0.00512695C52.1356 0.00512695 4 48.1313 4 107.5C4 166.87 52.1309 214.996 111.5 214.996C170.874 214.996 219 166.87 219 107.5C219 48.1313 170.874 0.00512695 111.5 0.00512695ZM111.5 32.1475C131.143 32.1475 147.061 48.0699 147.061 67.7038C147.061 87.3424 131.143 103.26 111.5 103.26C91.8661 103.26 75.9484 87.3424 75.9484 67.7038C75.9484 48.0699 91.8661 32.1475 111.5 32.1475ZM111.476 186.891C91.885 186.891 73.9416 179.756 60.1015 167.946C56.7301 165.07 54.7846 160.854 54.7846 156.429C54.7846 136.517 70.9006 120.58 90.8178 120.58H132.192C152.114 120.58 168.168 136.517 168.168 156.429C168.168 160.858 166.232 165.066 162.856 167.941C149.021 179.756 131.073 186.891 111.476 186.891Z" fill="black"/>
</g>
<defs>
<filter id="filter0_d" x="0" y="0" width="223" height="223" filterUnits="userSpaceOnUse" color-interpolation-filters="sRGB">
<feFlood flood-opacity="0" result="BackgroundImageFix"/>
<feColorMatrix in="SourceAlpha" type="matrix" values="0 0 0 0 0 0 0 0 0 0 0 0 0 0 0 0 0 0 127 0"/>
<feOffset dy="4"/>
<feGaussianBlur stdDeviation="2"/>
<feColorMatrix type="matrix" values="0 0 0 0 0 0 0 0 0 0 0 0 0 0 0 0 0 0 0.25 0"/>
<feBlend mode="normal" in2="BackgroundImageFix" result="effect1_dropShadow"/>
<feBlend mode="normal" in="SourceGraphic" in2="effect1_dropShadow" result="shape"/>
</filter>
</defs>
</svg>
